<?xml version="1.0" encoding="UTF-8"?>
<svg id="Layer_1" data-name="Layer 1" xmlns="http://www.w3.org/2000/svg" viewBox="0 0 716.43 299.12">
  <defs>
    <style>
      .cls-1 {
        fill: #ff8021;
        fill-rule: evenodd;
        stroke-width: 0px;
      }
    </style>
  </defs>
  <path class="cls-1" d="M713.97,298.48c.37.63,1.19.83,1.81.46.63-.38.83-1.19.46-1.81-10.2-17.08-34.39-16.87-53.03-16.7-11.53.1-20.8.18-22.28-3.65-1.19-3.08-2.56-5.97-4.08-8.66-5.67-9.97-13.51-17.17-22.2-21.01-8.75-3.86-18.36-4.33-27.49-.81-1.74.67-3.46,1.48-5.15,2.44-6.51,3.7-10.68,5.6-10.65,3.5.07-3.74,5.1-13.41,17.32-32.43,13.25-20.61,27.5-44.09,37.66-64.3,7.91-15.74,13.34-29.53,13.9-38.5.86-13.8-1.1-18.32-2.34-21.19-.68-1.56-1.1-2.53-.42-4.77,1.29-4.27,6.09-12.78,18.74-35.18l5.33-9.45c.77-1.36.99-1.35,1.21-1.34,1.03.05,2.08.11,3.69-2.66l4.6-7.93c.51-.88.65-1.68.55-2.47-.09-.71-.35-1.34-.69-2.01-.64-1.26-.6-1.33-.25-1.99.17-.32.37-.71.64-1.29.28-.62.05-1.35-.53-1.69l-19.11-11.31c-.62-.36-1.41-.17-1.79.43-1.17,1.6-1.95,1.5-2.64,1.42-1.35-.17-2.56-.32-3.95,1.89l-4.93,7.87c-1.96,3.12-1.42,4.06-.92,4.94.07.12.13.24-.4,1.12-6.29,10.4-10.98,18.36-14.55,24.42-6.34,10.76-9.13,15.48-11.35,17.77-1.58,1.63-3,2.06-5.53,2.81-3.76,1.12-9.73,2.89-21.58,9.73l-.04.02c-14.95,9.32-48.48,69.22-68.23,104.5-1.86,3.33-3.6,6.44-5.18,9.24-2.23-7.29-5.72-21.19-8.68-35.37-2.37-11.38-4.39-22.93-5.1-31.33-.75-8.86,2.19-19.54,4.83-29.14.73-2.67,1.45-5.26,2.03-7.6.07-.28.12-.51.17-.72.18-.8.2-.87,1.47-1.32.92-.32,1.76-.4,2.53-.47,4.92-.46,7.91-.74,19.86-39.34.76-2.45,1.55-5.1,2.26-7.74.72-2.7,1.37-5.44,1.82-8.05.3-1.75.02-3.02-.53-3.78-.35-.47-.8-.78-1.32-.91-.51-.13-1.03-.08-1.54.13-.86.37-1.72,1.29-2.22,2.71l-1.18,3.33c-1.38,3.9-3.03,8.56-4.62,13.28-1.89,5.58-4.07,11.16-5.9,15.83-.65,1.67-1.26,3.23-1.72,4.43-.39,1.02-.83,1.65-1.21,1.93-.11-.46-.04-1.26.31-2.44,1.64-5.54,4.48-13.2,7.12-20.32,2.69-7.27,5.18-13.98,6.05-17.52.27-1.12.15-2.15-.23-2.86-.25-.46-.6-.82-1.04-1.03-.47-.23-1-.28-1.56-.13-.73.2-1.51.78-2.23,1.86-2.16,3.26-4.55,8.61-6.82,14.44-3.5,8.98-6.73,19.16-8.36,24.48-.11.36-.23.63-.34.81-.13-.45-.12-1.19.13-2.26,2.61-11.45,6.84-20.94,10-28.04,1.79-4.03,3.26-7.31,3.93-9.83.33-1.23.23-2.2-.13-2.87-.27-.51-.67-.86-1.16-1.05l-.1-.04c-.42-.15-.88-.17-1.35-.06-.83.19-1.72.79-2.38,1.78-2.77,4.13-8.05,15.33-12.7,26.55-4.19,10.1-7.9,20.26-8.84,25.36-.72,3.89,1.1,5.94,2.67,7.7.69.78,1.32,1.48,1.4,2.1.06.48-.97,4.14-2.35,8.74-2.57,8.57-6.32,19.99-6.77,21.23-2.16,6.02-4.22,11.33-6.18,16.25-2.96,1.12-6.47,2.97-10.47,5.08-17.79,9.39-45.85,24.19-73,.06-.55-.49-1.38-.44-1.87.11-.31.35-.4.82-.29,1.24l12.67,44.61c-20.64-10.5-40-6.36-58.66-3.44-16.77,2.62-30.95,6.5-53.05-.32,6.37-19.34,12.14-40.38,16.13-60.14.76.31,1.42.58,1.92.81,15.72,7.29,39.86,7.76,58.59,3.23,6.33-1.53,12.07-3.64,16.68-6.25,4.35,6.16,10.1,10.61,16.63,13.47,7.85,3.44,16.82,4.57,25.83,3.62,8.99-.95,18.02-3.96,26.03-8.81,13.97-8.46,24.85-22.5,26.97-40.92,1.84-15.96-3.22-32.28-12.52-44.37-3.94-5.13-8.65-9.5-13.91-12.77-5.3-3.29-11.16-5.47-17.39-6.18-10.6-1.22-22.22,1.78-33.85,10.73-.26.2-.6.39-.97.53-.79.31-1.71.45-2.57.31-.79-.12-1.53-.48-2.05-1.16-.18-.23-.34-.51-.47-.85-2.59-6.56-5.69-12.13-9.14-16.79-8.18-11.04-18.39-17.01-28.89-19.3-10.48-2.28-21.24-.88-30.56,2.8-4.53,1.79-8.73,4.13-12.41,6.85-3.61,2.67-7.18,6.84-10.09,11.43-.53-.33-1.07-.64-1.63-.96-5.61-3.15-12.26-5.51-18.65-6.3-11.14-1.37-25.9,1.11-39.26,8-11.05,5.7-21.17,14.42-27.55,26.48-10.73,20.28-8.23,41.11-.29,57.25-1.43.55-2.83,1.19-4.19,1.93-5.83,3.19-10.85,8.21-14.19,15.57-3.39-9.46-6.19-18.51-7.26-26.29-.49-3.55.7-6.58,2.01-9.95,2.81-7.18,6.16-15.76-2.75-33.91-8.74-17.8-16.42-29.94-21.52-34.82-2.73-2.61-5.02-3.37-6.7-2.09-1.45,1.1-2.1,3.83-1.78,8.32.81,11.21,7.38,35.21,22.4,74.77,6.97,18.34,3.61,37.89.26,57.43-.96,5.62-1.93,11.24-2.67,16.98-.88,6.84-.7,11.65.1,14.95-1.37.52-2.88,1.17-4.53,1.94-2.36,1.11-4.47,2.58-6.73,4.15-2.2,1.53-4.53,3.15-7.22,4.54l-2.47-2.83c-13.84-15.82-22.81-26.08-36.1-51-4-7.49-1.91-13.04.41-19.19,1.43-3.8,2.94-7.81,3.32-12.66.8-10.25-4.07-21.5-11.36-32.11-9.98-14.55-24.53-27.97-35.04-35.9-.49-.37-1.16-.35-1.62.02l-45.9,32.54c-.54.38-.7,1.09-.42,1.66.96,2.16,1.86,4.24,2.8,6.42,9.32,21.53,22.27,51.48,45.83,57.7,5.51,1.46,9.73,1.65,13.43,1.82,11.38.53,17.63.82,43.82,41.78,2.94,4.6,4.78,7.57,6.34,10.56,1.46,2.79,2.7,5.63,4.39,9.85-1.41,1.11-3.17,2.33-5.08,3.66-7.22,5.01-16.34,11.34-16.78,18.45-8.18-.85-14.77-.14-20.29,1.57-5.89,1.83-10.54,4.8-14.61,8.25-10.66,9.06-15.68,16.83-19.68,23.04-7.03,10.9-10.79,16.73-39.22,15.69-6.36-.23-13.31.72-20.39,3.34-6.24,2.3-12.58,5.89-18.72,11.08-.56.47-.63,1.31-.16,1.87s1.31.63,1.87.16c5.89-4.98,11.96-8.41,17.92-10.61,6.75-2.49,13.35-3.4,19.39-3.18,29.93,1.09,33.97-5.18,41.54-16.91,3.91-6.06,8.8-13.64,19.16-22.44,3.83-3.25,8.19-6.04,13.68-7.75,5.52-1.71,12.22-2.35,20.72-1.3h0c.11,0,.22,0,.33,0,.72-.09,1.23-.76,1.14-1.48-.82-6.2,8.41-12.6,15.6-17.59,2.33-1.62,4.46-3.09,6.02-4.4h0c.43-.36.6-.96.38-1.5-1.92-4.82-3.26-7.92-4.87-11-1.61-3.07-3.48-6.1-6.45-10.76-26.93-42.12-33.67-42.44-45.94-43-3.56-.16-7.62-.35-12.87-1.74-22.32-5.9-34.98-35.15-44.08-56.19-.84-1.95-1.65-3.83-2.39-5.5l44.27-31.39c10.28,7.86,24.12,20.76,33.68,34.69,6.97,10.17,11.65,20.85,10.9,30.42-.35,4.48-1.79,8.3-3.15,11.92-2.54,6.74-4.83,12.82-.26,21.37,13.44,25.19,22.49,35.54,36.44,51.5l3.14,3.6c.38.43,1.02.58,1.57.32,3.32-1.59,5.99-3.45,8.48-5.19,2.18-1.52,4.23-2.95,6.33-3.94,1.57-.74,2.98-1.36,4.23-1.87,1.16,2.6,2.85,3.72,4.57,3.94,1.96.25,3.93-.67,5.27-1.94,1.47-1.4,2.22-3.3,1.54-4.75-.78-1.65-3.61-2.53-9.82-.55-.6-2.85-.69-7.24.15-13.79.71-5.51,1.68-11.19,2.66-16.86,3.41-19.9,6.83-39.8-.39-58.81-14.92-39.3-21.45-63.03-22.24-74.02-.25-3.52.02-5.48.73-6.02.48-.36,1.61.3,3.28,1.9,4.9,4.69,12.37,16.55,20.97,34.06,8.4,17.1,5.27,25.09,2.66,31.78-1.45,3.7-2.75,7.04-2.17,11.26,1.21,8.81,4.51,19.04,8.4,29.65-2.48,7.21-3.52,16.33-2.53,27.72.99,11.37,6.22,28.74,11.26,37.92,1.38,2.52,2.78,4.47,4.11,5.59,1.77,1.49,3.47,1.71,5,.27,1.13-1.06,2.03-3.23,2.58-6.76,2.09-13.21-5.53-33.08-13.17-53.04-1.5-3.92-3-7.84-4.43-11.71,3.04-8.25,8.11-13.68,14.11-16.96,1.34-.73,2.73-1.36,4.15-1.89,1.76,3.26,3.74,6.31,5.87,9.09,3.83,5,8.13,9.16,12.52,12.21,4.45,3.09,9,5.05,13.25,5.61,6.82.89,12.78-1.76,16.29-9.03,2.24-4.64-.18-9.59-5.34-13.7-5.17-4.12-13.21-7.45-21.91-8.66-6.36-.88-13.1-.64-19.37,1.25-7.73-15.52-10.24-35.62.1-55.15,6.1-11.53,15.81-19.89,26.42-25.36,12.88-6.65,27.06-9.04,37.73-7.73,6.04.75,12.35,2.99,17.67,5.98.53.3,1.05.6,1.56.91-1.86,3.26-3.35,6.65-4.26,9.8-.87,3-1.22,5.82-.9,8.18.36,2.59,1.5,4.64,3.63,5.84,2.05,1.16,4.97,1.46,8.93.56.82-.19,1.59-.48,2.28-.85,1.86-1.01,3.21-2.64,3.94-4.65.71-1.94.85-4.23.31-6.63-.3-1.34-.82-2.72-1.57-4.1-1.71-3.15-4.85-6.27-8.8-9,2.73-4.32,6.08-8.23,9.47-10.74,3.48-2.58,7.48-4.8,11.81-6.51,8.87-3.51,19.09-4.84,29.03-2.68,9.92,2.16,19.56,7.81,27.32,18.28,3.31,4.47,6.29,9.84,8.8,16.19.22.56.51,1.05.84,1.49.97,1.27,2.32,1.93,3.74,2.16,1.35.21,2.76.01,3.95-.46.59-.23,1.14-.54,1.62-.91,11.03-8.48,21.99-11.33,31.93-10.19,5.83.67,11.32,2.71,16.29,5.8,5,3.1,9.47,7.26,13.22,12.14,8.9,11.57,13.74,27.19,11.98,42.46-2.02,17.52-12.39,30.89-25.71,38.95-7.68,4.65-16.33,7.54-24.93,8.44-8.57.9-17.08-.16-24.5-3.41-6.04-2.64-11.37-6.75-15.42-12.44,3.75-2.48,6.56-5.37,8.07-8.61,1.26-2.71,1.61-5.65.85-8.79-1.12-4.65-5.15-8.49-9.09-9.84-1.39-.48-2.79-.66-4.08-.47-1.38.19-2.62.79-3.6,1.86-1.9,2.09-2.68,6-1.15,12.29h0c1.22,4.82,3.01,9.05,5.27,12.74-4.36,2.44-9.81,4.43-15.85,5.89-18.23,4.4-41.67,3.98-56.86-3.07-.63-.29-1.36-.59-2.18-.93l-.35-.14c1.71-10.22.78-18.15-5.2-21.43-3-1.65-6.82-1.72-9.79-.53-1.38.55-2.59,1.38-3.47,2.45-.92,1.11-1.49,2.48-1.54,4.08-.08,2.63,1.31,5.84,5.02,9.41,4.04,3.9,8.55,6.16,12.07,7.68-4.06,20.17-10.25,41.78-16.65,61.6-.22.7.16,1.44.86,1.66,23.28,7.52,38.14,3.53,55.53.82,18.95-2.96,38.54-7.14,59.51,4.49.28.17.63.24.98.16.71-.16,1.16-.87,1-1.59l-12.45-43.66c27.52,21.69,55.17,7.12,72.93-2.26,2.93-1.55,5.58-2.94,7.86-3.99-.93,2.31-1.85,4.54-2.75,6.73-5.62,13.7-10.56,25.73-15.52,44.84-1.5,5.77-1.61,9.37-.8,11.25.77,1.77,2.13,2.34,3.89,1.92,1.3-.31,2.83-1.27,4.46-2.72,5.34-4.81,12.37-15.62,15.52-26.24,8.41-28.35,8.71-38.49,3.2-40.12-.98-.29-2.12-.29-3.4-.05,1.74-4.39,3.54-9.12,5.45-14.41.46-1.27,4.25-12.82,6.82-21.36,1.47-4.9,2.55-8.93,2.43-9.84-.19-1.44-1.07-2.43-2.04-3.52-1.17-1.32-2.53-2.85-2.05-5.46.9-4.9,4.55-14.86,8.68-24.82,4.6-11.09,9.79-22.11,12.46-26.09.16-.24.33-.42.48-.53-.01.15-.05.36-.12.62-.63,2.35-2.05,5.53-3.79,9.44-3.21,7.21-7.5,16.83-10.17,28.54-.49,2.16-.21,3.73.39,4.62.33.48.75.81,1.24.97.52.18,1.06.15,1.6-.07.85-.35,1.66-1.26,2.1-2.73,1.61-5.27,4.82-15.37,8.29-24.29,2.21-5.66,4.51-10.84,6.56-13.93.14-.21.26-.37.36-.49,0,.16-.03.35-.08.56-.81,3.34-3.29,10.01-5.96,17.23-2.65,7.14-5.49,14.81-7.17,20.48-.64,2.17-.52,3.76,0,4.7.32.58.79.97,1.35,1.15.55.18,1.14.14,1.72-.11,1.01-.43,2.11-1.62,2.85-3.54.57-1.49,1.12-2.9,1.71-4.4,1.84-4.7,4.03-10.32,5.94-15.94,1.59-4.7,3.24-9.36,4.61-13.25l1.18-3.34c.17-.48.36-.81.55-.99.08.3.08.8-.05,1.52-.44,2.52-1.07,5.18-1.77,7.81-.72,2.68-1.5,5.28-2.23,7.65-11.43,36.91-13.75,37.13-17.57,37.48-.94.09-1.95.18-3.16.61-2.66.93-2.7,1.13-3.18,3.23-.05.2-.1.43-.16.68-.62,2.47-1.3,4.97-2.01,7.54-2.71,9.83-5.71,20.75-4.92,30.06.72,8.5,2.76,20.16,5.15,31.65,3.12,14.99,6.87,29.72,9.1,36.73.14.43.26.85.38,1.27-1.11,1.97-2.12,3.73-2.99,5.24-3.72,6.45-4.51,10.95-3.88,13.48.55,2.18,2.01,3.18,3.79,3.04,1.48-.12,3.13-1.17,4.45-3.11,2.25-3.3,3.71-9.49,1.45-18.28,1.94-3.43,4.09-7.28,6.44-11.48,19.63-35.06,52.94-94.59,67.31-103.55,11.55-6.67,17.33-8.38,20.96-9.46,2.96-.88,4.62-1.37,6.68-3.5,2.45-2.53,5.28-7.33,11.73-18.27,3.54-6.01,8.19-13.89,14.54-24.4,1.33-2.21.89-2.98.43-3.79-.13-.22-.26-.46.86-2.24l4.93-7.87c.48-.77.91-.72,1.39-.66,1.25.15,2.63.32,4.39-1.61l17.07,10.1-.05.1c-.92,1.75-1.02,1.93.23,4.41.21.42.38.8.42,1.13.03.25-.02.51-.21.83l-4.6,7.93c-.8,1.37-1.03,1.36-1.26,1.35-1.04-.05-2.07-.11-3.65,2.69l-5.33,9.45c-12.77,22.62-17.62,31.2-18.98,35.72-.95,3.14-.38,4.46.54,6.57,1.15,2.64,2.94,6.8,2.12,19.99-.53,8.58-5.85,22.03-13.62,37.47-10.09,20.07-24.3,43.48-37.52,64.05-12.5,19.45-17.66,29.57-17.74,33.82-.11,5.88,5.63,3.94,14.6-1.16,1.58-.9,3.18-1.66,4.8-2.28,8.45-3.25,17.35-2.82,25.47.77,8.18,3.61,15.58,10.42,20.96,19.89,1.47,2.58,2.78,5.35,3.92,8.31,2.13,5.53,12.22,5.45,24.77,5.34,17.98-.16,41.31-.36,50.73,15.42h0ZM508.12,209.63c.51-.88,1.03-1.79,1.58-2.75,1.13,6.41,0,10.88-1.69,13.35-.84,1.24-1.75,1.89-2.48,1.95-.43.04-.82-.31-1-1.04-.5-1.98.27-5.75,3.6-11.52h0ZM478.97,149.78c1.2-2.93,2.44-5.94,3.71-9.11,1.6-.52,2.91-.71,3.86-.43,3.75,1.11,2.85,10.39-5,36.83-3.01,10.16-9.69,20.46-14.76,25.02-1.3,1.17-2.43,1.91-3.28,2.11-.4.09-.7-.02-.86-.39-.59-1.37-.41-4.39.93-9.54,4.92-18.93,9.82-30.89,15.41-44.5h0ZM306.13,104.03c4.73,2.6,5.49,9.27,4.06,18.09-3.24-1.43-7.21-3.52-10.73-6.91-3.1-2.99-4.27-5.49-4.21-7.43.03-.95.38-1.78.94-2.46.6-.72,1.44-1.29,2.42-1.68,2.29-.92,5.23-.86,7.53.4h0ZM397.24,112.49c-1.29,2.78-3.77,5.31-7.12,7.52-2.13-3.47-3.82-7.46-4.97-11.99-1.29-5.29-.81-8.38.54-9.87.53-.59,1.22-.91,2-1.02.86-.12,1.85.02,2.86.36,3.2,1.1,6.47,4.2,7.38,7.95.61,2.52.33,4.88-.68,7.06h0ZM306.85,34.99c.84-2.93,2.22-6.06,3.92-9.09,3.55,2.47,6.34,5.25,7.84,7.99.63,1.15,1.06,2.3,1.31,3.41.43,1.89.33,3.66-.21,5.13-.52,1.41-1.45,2.55-2.72,3.24-.48.26-1.02.46-1.6.6-3.26.74-5.55.56-7.04-.29-1.34-.76-2.07-2.13-2.31-3.9-.27-1.99.05-4.45.81-7.1h0ZM231.75,116.53c-1.96-2.56-3.78-5.35-5.42-8.33,5.74-1.64,11.91-1.83,17.76-1.01,8.23,1.14,15.79,4.26,20.63,8.11,4.18,3.32,6.22,7.13,4.61,10.48-2.94,6.08-7.9,8.3-13.57,7.56-3.81-.5-7.96-2.31-12.08-5.16-4.17-2.9-8.28-6.87-11.93-11.64h0ZM202.8,155.38c-.81-9.33-.22-17.05,1.42-23.37,1.06,2.83,2.15,5.68,3.24,8.52,7.52,19.64,15.01,39.19,13.03,51.69-.46,2.9-1.07,4.56-1.79,5.23-.34.32-.85.15-1.49-.37-1.07-.9-2.26-2.59-3.49-4.84-4.89-8.92-9.98-25.8-10.94-36.87h0ZM191.98,193.35c-.95-.12-1.87-.77-2.57-2.22,4.44-1.6,6.29-1.48,6.65-.73.16.35-.27,1.06-.97,1.71-.83.79-2.01,1.37-3.11,1.23Z"/>
</svg>